<?xml version="1.0" encoding="UTF-8" standalone="no" ?>
<!DOCTYPE svg PUBLIC "-//W3C//DTD SVG 1.1//EN" "http://www.w3.org/Graphics/SVG/1.1/DTD/svg11.dtd">
<svg xmlns="http://www.w3.org/2000/svg" xmlns:xlink="http://www.w3.org/1999/xlink" version="1.1" width="1280" height="1024" viewBox="0 0 1280 1024" xml:space="preserve">
<desc>Created with Fabric.js 5.3.0</desc>
<defs>
</defs>
<g transform="matrix(1 0 0 1 640 512)" id="background-logo"  >
<rect style="stroke: none; stroke-width: 0; stroke-dasharray: none; stroke-linecap: butt; stroke-dashoffset: 0; stroke-linejoin: miter; stroke-miterlimit: 4; fill: rgb(255,255,255); fill-opacity: 0; fill-rule: nonzero; opacity: 1;"  paint-order="stroke"  x="-640" y="-512" rx="0" ry="0" width="1280" height="1024" />
</g>
<g transform="matrix(3.652501695119666 0 0 3.652501695119666 640 512.2266333938294)" id="logo-logo"  >
<g style=""  paint-order="stroke"   >
		<g transform="matrix(0.3879128625050534 0 0 -0.3879128625050533 -3.4106051e-13 -35.90327498915525)"  >
<path style="stroke: none; stroke-width: 1; stroke-dasharray: none; stroke-linecap: butt; stroke-dashoffset: 0; stroke-linejoin: miter; stroke-miterlimit: 4; fill: rgb(228,223,204); fill-rule: nonzero; opacity: 1;"  paint-order="stroke"  transform=" translate(-4209.45, -6045.31)" d="M 4275.09 6247.87 C 4334.1 6235.11 4386.83 6205.5 4428 6164.32 C 4483.94 6108.389999999999 4518.54 6031.12 4518.54 5945.7699999999995 C 4518.54 5913.12 4513.46 5881.639999999999 4504.07 5852.089999999999 L 4484.719999999999 5845.129999999999 C 4496.199999999999 5876.509999999999 4502.459999999999 5910.409999999999 4502.459999999999 5945.7699999999995 C 4502.459999999999 6026.69 4469.659999999999 6099.94 4416.639999999999 6152.959999999999 C 4378.41 6191.199999999999 4329.65 6218.909999999999 4275.089999999999 6231.399999999999 z M 4143.81 6231.4 C 4089.2500000000005 6218.91 4040.4900000000002 6191.2 4002.26 6152.96 C 3949.23 6099.94 3916.44 6026.69 3916.44 5945.77 C 3916.44 5909.52 3923.02 5874.8 3935.06 5842.75 L 3915.27 5850.67 C 3905.6 5880.63 3900.36 5912.59 3900.36 5945.77 C 3900.36 6031.120000000001 3934.96 6108.39 3990.8900000000003 6164.320000000001 C 4032.07 6205.500000000001 4084.8 6235.110000000001 4143.81 6247.870000000001 L 4143.81 6231.400000000001" stroke-linecap="round" />
</g>
		<g transform="matrix(0.3879128625050534 0 0 -0.3879128625050533 0 77.09669411473115)"  >
<path style="stroke: none; stroke-width: 1; stroke-dasharray: none; stroke-linecap: butt; stroke-dashoffset: 0; stroke-linejoin: miter; stroke-miterlimit: 4; fill: rgb(228,223,204); fill-rule: evenodd; opacity: 1;"  paint-order="stroke"  transform=" translate(-4209.450000000001, -5754.0075451802295)" d="M 4209.45 5616.66 C 4065.96 5616.66 3943.9399999999996 5708.5 3898.8999999999996 5836.59 L 3950.2599999999998 5817.46 L 3972.3599999999997 5866.18 L 3972.3599999999997 5866.18 C 3978.72 5847.240000000001 3987.2999999999997 5829.3 3997.7599999999998 5812.6900000000005 C 3995.37 5812.01 3993.37 5811.330000000001 3991.91 5810.8 C 3988.5 5809.55 3987.96 5809.110000000001 3987.83 5806.41 C 3987.7 5803.71 3987.96 5798.75 3988.98 5793.83 C 3990 5788.91 3991.78 5784.04 3994.48 5779.08 C 3997.18 5774.12 4000.81 5769.07 4005.64 5764.33 C 4010.47 5759.59 4016.49 5755.16 4023.27 5751.98 C 4030.04 5748.79 4037.57 5746.839999999999 4044.44 5746.04 C 4050.08 5745.39 4055.27 5745.51 4059.38 5745.79 C 4087.25 5724.84 4119.650000000001 5709.58 4154.84 5701.73 C 4106.41 5728.389999999999 4055.88 5780.53 4046.03 5882.589999999999 C 4045.61 5886.989999999999 4048.84 5890.9 4053.2400000000002 5891.319999999999 C 4057.65 5891.729999999999 4061.55 5888.499999999999 4061.9700000000003 5884.0999999999985 C 4074.6000000000004 5753.279999999999 4158.4400000000005 5710.579999999998 4210.26 5696.649999999999 C 4262.09 5710.589999999998 4345.91 5753.299999999998 4358.530000000001 5884.0999999999985 C 4358.950000000001 5888.499999999998 4362.860000000001 5891.729999999999 4367.26 5891.319999999999 C 4371.66 5890.899999999999 4374.89 5886.989999999999 4374.4800000000005 5882.589999999999 C 4364.700000000001 5781.3099999999995 4314.860000000001 5729.199999999999 4266.780000000001 5702.36 C 4300.9800000000005 5710.389999999999 4332.4800000000005 5725.429999999999 4359.670000000001 5745.9 C 4363.960000000001 5745.549999999999 4369.730000000001 5745.299999999999 4376.060000000001 5746.04 C 4382.930000000001 5746.84 4390.460000000001 5748.79 4397.230000000001 5751.98 C 4404.010000000001 5755.16 4410.040000000002 5759.589999999999 4414.8600000000015 5764.33 C 4419.690000000001 5769.07 4423.3200000000015 5774.12 4426.020000000001 5779.08 C 4428.730000000001 5784.04 4430.500000000001 5788.91 4431.520000000001 5793.83 C 4432.540000000002 5798.75 4432.800000000001 5803.71 4432.670000000001 5806.41 C 4432.540000000001 5809.11 4432.000000000001 5809.55 4428.590000000001 5810.8 C 4426.8600000000015 5811.43 4424.380000000001 5812.26 4421.380000000001 5813.070000000001 C 4431.740000000001 5829.580000000001 4440.220000000001 5847.380000000001 4446.530000000001 5866.18 L 4446.540000000001 5866.18 L 4468.640000000001 5817.46 L 4520.000000000001 5836.59 C 4474.960000000001 5708.5 4352.9400000000005 5616.66 4209.450000000001 5616.66" stroke-linecap="round" />
</g>
		<g transform="matrix(0.3879128625050534 0 0 -0.3879128625050533 0 -31.905832941040018)"  >
<path style="stroke: none; stroke-width: 1; stroke-dasharray: none; stroke-linecap: butt; stroke-dashoffset: 0; stroke-linejoin: miter; stroke-miterlimit: 4; fill: rgb(228,223,204); fill-rule: nonzero; opacity: 1;"  paint-order="stroke"  transform=" translate(-4209.450000000001, -6035.004999999999)" d="M 4275.09 6223.69 C 4327.57 6211.339999999999 4374.47 6184.5199999999995 4411.33 6147.66 C 4463 6095.99 4494.96 6024.61 4494.96 5945.7699999999995 C 4494.96 5910.82 4488.67 5877.339999999999 4477.18 5846.389999999999 L 4472.5 5857.249999999999 C 4481.85 5885.049999999999 4486.92 5914.819999999999 4486.92 5945.7699999999995 C 4486.92 6022.389999999999 4455.86 6091.7699999999995 4405.65 6141.98 C 4370.259999999999 6177.36 4325.349999999999 6203.24 4275.089999999999 6215.429999999999 z M 4143.81 6215.429999999999 C 4093.55 6203.24 4048.6400000000003 6177.36 4013.2500000000005 6141.98 C 3963.0400000000004 6091.7699999999995 3931.9800000000005 6022.389999999999 3931.9800000000005 5945.7699999999995 C 3931.9800000000005 5914.33 3937.2100000000005 5884.11 3946.8500000000004 5855.929999999999 L 3941.7500000000005 5846.32 C 3930.2400000000002 5877.29 3923.9400000000005 5910.799999999999 3923.9400000000005 5945.7699999999995 C 3923.9400000000005 6024.61 3955.9000000000005 6095.99 4007.5700000000006 6147.66 C 4044.4300000000007 6184.5199999999995 4091.330000000001 6211.34 4143.81 6223.69 L 4143.81 6215.429999999999" stroke-linecap="round" />
</g>
		<g transform="matrix(0.3879128625050534 0 0 -0.3879128625050533 22.227407021539136 68.60820842695634)"  >
<path style="stroke: none; stroke-width: 1; stroke-dasharray: none; stroke-linecap: butt; stroke-dashoffset: 0; stroke-linejoin: miter; stroke-miterlimit: 4; fill: rgb(228,223,204); fill-rule: evenodd; opacity: 1;"  paint-order="stroke"  transform=" translate(-4266.75, -5775.89)" d="M 4266.75 5821.54 C 4253.2 5810.93 4244.49 5794.43 4244.49 5775.89 C 4244.49 5757.35 4253.2 5740.84 4266.75 5730.240000000001 L 4266.75 5775.89 L 4276.79 5740.3 C 4284.45 5750.12 4289.01 5762.47 4289.01 5775.89 C 4289.01 5794.43 4280.3 5810.93 4266.75 5821.54" stroke-linecap="round" />
</g>
		<g transform="matrix(0.3879128625050534 0 0 -0.3879128625050533 68.10198214138683 66.856941535576)"  >
<path style="stroke: none; stroke-width: 1; stroke-dasharray: none; stroke-linecap: butt; stroke-dashoffset: 0; stroke-linejoin: miter; stroke-miterlimit: 4; fill: rgb(228,223,204); fill-rule: evenodd; opacity: 1;"  paint-order="stroke"  transform=" translate(-4385.01, -5780.4045883538665)" d="M 4424.61 5803.11 C 4422.15 5786.08 4412.16 5770.32 4396.08 5761.089999999999 C 4380 5751.879999999999 4361.35 5751.219999999999 4345.41 5757.699999999999 L 4385.01 5780.409999999999 L 4349.14 5771.419999999999 C 4353.860000000001 5782.949999999999 4362.3 5793.039999999999 4373.950000000001 5799.709999999999 C 4390.030000000001 5808.929999999999 4408.68 5809.589999999999 4424.610000000001 5803.109999999999" stroke-linecap="round" />
</g>
		<g transform="matrix(0.3879128625050534 0 0 -0.3879128625050533 43.05075573663743 32.52843308536157)"  >
<path style="stroke: none; stroke-width: 1; stroke-dasharray: none; stroke-linecap: butt; stroke-dashoffset: 0; stroke-linejoin: miter; stroke-miterlimit: 4; fill: rgb(228,223,204); fill-rule: evenodd; opacity: 1;"  paint-order="stroke"  transform=" translate(-4320.430480148623, -5868.9)" d="M 4314.53 5914.16 C 4302.46 5901.9 4295.96 5884.41 4298.36 5866.0199999999995 C 4300.759999999999 5847.639999999999 4311.53 5832.4 4326.33 5823.639999999999 L 4320.43 5868.9 L 4334.990000000001 5834.91 C 4341.31 5845.639999999999 4344.240000000001 5858.48 4342.500000000001 5871.78 C 4340.110000000001 5890.16 4329.340000000001 5905.4 4314.530000000001 5914.16" stroke-linecap="round" />
</g>
		<g transform="matrix(0.3879128625050534 0 0 -0.3879128625050533 77.53814474141035 26.393591164843997)"  >
<path style="stroke: none; stroke-width: 1; stroke-dasharray: none; stroke-linecap: butt; stroke-dashoffset: 0; stroke-linejoin: miter; stroke-miterlimit: 4; fill: rgb(228,223,204); fill-rule: evenodd; opacity: 1;"  paint-order="stroke"  transform=" translate(-4409.33546974361, -5884.715)" d="M 4431.2 5924.79 C 4438.01 5908.99 4437.75 5890.33 4428.88 5874.05 C 4419.99 5857.78 4404.45 5847.46 4387.47 5844.64 L 4409.34 5884.71 L 4383.4800000000005 5858.29 C 4381.46 5870.57 4383.370000000001 5883.6 4389.8 5895.38 C 4398.68 5911.650000000001 4414.2300000000005 5921.96 4431.2 5924.79" stroke-linecap="round" />
</g>
		<g transform="matrix(0.3879128625050534 0 0 -0.3879128625050533 -21.60480687721929 68.60820842695634)"  >
<path style="stroke: none; stroke-width: 1; stroke-dasharray: none; stroke-linecap: butt; stroke-dashoffset: 0; stroke-linejoin: miter; stroke-miterlimit: 4; fill: rgb(228,223,204); fill-rule: evenodd; opacity: 1;"  paint-order="stroke"  transform=" translate(-4153.755, -5775.89)" d="M 4153.75 5821.54 C 4167.3 5810.93 4176.01 5794.43 4176.01 5775.89 C 4176.01 5757.35 4167.3 5740.84 4153.75 5730.240000000001 L 4153.75 5775.89 L 4143.71 5740.3 C 4136.06 5750.12 4131.5 5762.47 4131.5 5775.89 C 4131.5 5794.43 4140.21 5810.93 4153.75 5821.54" stroke-linecap="round" />
</g>
		<g transform="matrix(0.3879128625050534 0 0 -0.3879128625050533 -67.48132156137939 66.856941535576)"  >
<path style="stroke: none; stroke-width: 1; stroke-dasharray: none; stroke-linecap: butt; stroke-dashoffset: 0; stroke-linejoin: miter; stroke-miterlimit: 4; fill: rgb(228,223,204); fill-rule: evenodd; opacity: 1;"  paint-order="stroke"  transform=" translate(-4035.49, -5780.4045883538665)" d="M 3995.89 5803.11 C 3998.35 5786.08 4008.3399999999997 5770.32 4024.42 5761.089999999999 C 4040.51 5751.879999999999 4059.16 5751.219999999999 4075.09 5757.699999999999 L 4035.4900000000002 5780.409999999999 L 4071.36 5771.419999999999 C 4066.6400000000003 5782.949999999999 4058.2000000000003 5793.039999999999 4046.56 5799.709999999999 C 4030.48 5808.929999999999 4011.82 5809.589999999999 3995.89 5803.109999999999" stroke-linecap="round" />
</g>
		<g transform="matrix(0.3879128625050534 0 0 -0.3879128625050533 -42.42936755233558 32.52843308536157)"  >
<path style="stroke: none; stroke-width: 1; stroke-dasharray: none; stroke-linecap: butt; stroke-dashoffset: 0; stroke-linejoin: miter; stroke-miterlimit: 4; fill: rgb(228,223,204); fill-rule: evenodd; opacity: 1;"  paint-order="stroke"  transform=" translate(-4100.071395541421, -5868.9)" d="M 4105.97 5914.16 C 4118.04 5901.9 4124.54 5884.41 4122.14 5866.0199999999995 C 4119.740000000001 5847.639999999999 4108.9800000000005 5832.4 4094.1700000000005 5823.639999999999 L 4100.070000000001 5868.9 L 4085.5100000000007 5834.91 C 4079.1900000000005 5845.639999999999 4076.270000000001 5858.48 4078.0000000000005 5871.78 C 4080.4000000000005 5890.16 4091.1700000000005 5905.4 4105.97 5914.16" stroke-linecap="round" />
</g>
		<g transform="matrix(0.3879128625050534 0 0 -0.3879128625050533 -76.91648493506938 26.393591164843997)"  >
<path style="stroke: none; stroke-width: 1; stroke-dasharray: none; stroke-linecap: butt; stroke-dashoffset: 0; stroke-linejoin: miter; stroke-miterlimit: 4; fill: rgb(228,223,204); fill-rule: evenodd; opacity: 1;"  paint-order="stroke"  transform=" translate(-4011.167106160493, -5884.715)" d="M 3989.3 5924.79 C 3982.4900000000002 5908.99 3982.75 5890.33 3991.63 5874.05 C 4000.51 5857.78 4016.06 5847.46 4033.03 5844.64 L 4011.17 5884.71 L 4037.03 5858.29 C 4039.0400000000004 5870.57 4037.13 5883.6 4030.7000000000003 5895.38 C 4021.8300000000004 5911.650000000001 4006.28 5921.96 3989.3 5924.79" stroke-linecap="round" />
</g>
		<g transform="matrix(0.3879128625050534 0 0 -0.3879128625050533 -0.0000043804359393107 -51.407667212404164)"  >
<path style="stroke: none; stroke-width: 1; stroke-dasharray: none; stroke-linecap: butt; stroke-dashoffset: 0; stroke-linejoin: miter; stroke-miterlimit: 4; fill: rgb(228,223,204); fill-rule: evenodd; opacity: 1;"  paint-order="stroke"  transform=" translate(-4209.449988707682, -6085.27875)" d="M 4209.45 6288.85 L 4179.65 6288.85 C 4179.65 6288.85 4158.589999999999 6286.75 4159.79 6258.450000000001 C 4160.99 6230.160000000001 4159.79 6102.250000000001 4159.79 6102.250000000001 C 4159.79 6102.250000000001 4157.98 6066.130000000001 4180.85 6043.860000000001 C 4180.85 6043.860000000001 4191.38 6036.34 4192.59 5996.610000000001 C 4193.29 5973.47 4193.17 5941.610000000001 4192.95 5919.030000000001 L 4189.0599999999995 5919.030000000001 C 4186.82 5919.030000000001 4184.999999999999 5917.200000000001 4184.999999999999 5914.97 L 4184.999999999999 5907.59 C 4184.999999999999 5905.360000000001 4186.819999999999 5903.53 4189.0599999999995 5903.53 L 4229.839999999999 5903.53 C 4232.069999999999 5903.53 4233.9 5905.36 4233.9 5907.59 L 4233.9 5914.97 C 4233.9 5917.2 4232.07 5919.030000000001 4229.839999999999 5919.030000000001 L 4225.949999999999 5919.030000000001 C 4225.729999999999 5941.610000000001 4225.609999999999 5973.47 4226.309999999999 5996.610000000001 C 4227.519999999999 6036.34 4238.049999999998 6043.860000000001 4238.049999999998 6043.860000000001 C 4260.919999999998 6066.130000000001 4259.109999999999 6102.250000000001 4259.109999999999 6102.250000000001 C 4259.109999999999 6102.250000000001 4257.909999999999 6230.160000000001 4259.109999999999 6258.450000000001 C 4260.309999999999 6286.750000000001 4239.239999999999 6288.85 4239.239999999999 6288.85 z M 4192.7 5898.490000000001 L 4192.59 5891.420000000001 C 4192.78 5878.470000000001 4226.13 5878.470000000001 4226.31 5891.420000000001 L 4226.200000000001 5898.490000000001 L 4192.700000000001 5898.490000000001" stroke-linecap="round" />
</g>
		<g transform="matrix(0.3879128625050534 0 0 -0.3879128625050533 9.91228489145493 -79.90617054741591)"  >
<path style="stroke: none; stroke-width: 1; stroke-dasharray: none; stroke-linecap: butt; stroke-dashoffset: 0; stroke-linejoin: miter; stroke-miterlimit: 4; fill: rgb(1,1,1); fill-rule: evenodd; opacity: 1;"  paint-order="stroke"  transform=" translate(-4235.002864701222, -6158.745000000001)" d="M 4244.93 6098.1 C 4244.93 6098.1 4245.83 6064.09 4225.070000000001 6051.14 C 4225.070000000001 6051.14 4236.200000000001 6074.610000000001 4236.500000000001 6097.79 C 4236.800000000001 6120.97 4236.500000000001 6266.35 4236.500000000001 6266.35 L 4244.880000000001 6266.35 L 4244.930000000001 6098.1" stroke-linecap="round" />
</g>
</g>
</g>
</svg>